<svg width="1920" height="1080" viewBox="0 0 1920 1080" xmlns="http://www.w3.org/2000/svg"><rect width="1920" height="1080" fill="#df6688"/><path d="M 0,1080 C 0,1080 0,180 0,180 C 105.05384615384614,184.7358974358974 210.10769230769228,189.47179487179486 326,189 C 441.8923076923077,188.52820512820514 568.623076923077,182.84871794871796 658,178 C 747.376923076923,173.15128205128204 799.4000000000001,169.13333333333333 906,177 C 1012.5999999999999,184.86666666666667 1173.776923076923,204.6179487179487 1305,197 C 1436.223076923077,189.3820512820513 1537.4923076923078,154.3948717948718 1635,147 C 1732.5076923076922,139.6051282051282 1826.253846153846,159.8025641025641 1920,180 C 1920,180 1920,1080 1920,1080 Z" fill="#3d1053" opacity="0.09999999999999999"/><path d="M 0,1080 C 0,1080 0,360 0,360 C 116.28461538461539,366.5358974358974 232.56923076923078,373.07179487179485 343,371 C 453.4307692307692,368.92820512820515 558.0076923076923,358.2487179487179 643,351 C 727.9923076923077,343.7512820512821 793.4000000000001,339.93333333333334 916,347 C 1038.6,354.06666666666666 1218.392307692308,372.0179487179487 1329,360 C 1439.607692307692,347.9820512820513 1481.030769230769,305.9948717948718 1568,301 C 1654.969230769231,296.0051282051282 1787.4846153846156,328.00256410256407 1920,360 C 1920,360 1920,1080 1920,1080 Z" fill="#3d1053" opacity="0.19999999999999998"/><path d="M 0,1080 C 0,1080 0,540 0,540 C 88.98205128205129,535.6333333333333 177.96410256410257,531.2666666666667 294,523 C 410.0358974358974,514.7333333333333 553.125641025641,502.56666666666666 655,496 C 756.874358974359,489.43333333333334 817.5333333333333,488.4666666666667 908,508 C 998.4666666666667,527.5333333333333 1118.7410256410258,567.5666666666667 1235,574 C 1351.2589743589742,580.4333333333333 1463.502564102564,553.2666666666667 1577,542 C 1690.497435897436,530.7333333333333 1805.248717948718,535.3666666666667 1920,540 C 1920,540 1920,1080 1920,1080 Z" fill="#3d1053" opacity="0.3"/><path d="M 0,1080 C 0,1080 0,720 0,720 C 111.69230769230768,738.1128205128206 223.38461538461536,756.2256410256412 317,761 C 410.61538461538464,765.7743589743588 486.1538461538463,757.2102564102563 603,759 C 719.8461538461537,760.7897435897437 877.9999999999998,772.9333333333333 1006,775 C 1134.0000000000002,777.0666666666667 1231.846153846154,769.0564102564102 1338,743 C 1444.153846153846,716.9435897435898 1558.6153846153845,672.8410256410256 1657,666 C 1755.3846153846155,659.1589743589744 1837.6923076923076,689.5794871794872 1920,720 C 1920,720 1920,1080 1920,1080 Z" fill="#3d1053" opacity="0.39999999999999997"/><path d="M 0,1080 C 0,1080 0,900 0,900 C 135.73076923076925,910.9717948717948 271.4615384615385,921.9435897435898 363,932 C 454.5384615384615,942.0564102564102 501.88461538461536,951.1974358974359 584,958 C 666.1153846153846,964.8025641025641 783,969.2666666666665 916,960 C 1049,950.7333333333335 1198.1153846153845,927.7358974358974 1318,915 C 1437.8846153846155,902.2641025641026 1528.5384615384614,899.7897435897437 1624,899 C 1719.4615384615386,898.2102564102563 1819.7307692307693,899.1051282051282 1920,900 C 1920,900 1920,1080 1920,1080 Z" fill="#3d1053" opacity="0.49999999999999994"/></svg>